<?xml version="1.0" standalone="no"?>
<!DOCTYPE svg PUBLIC "-//W3C//DTD SVG 20010904//EN"
 "http://www.w3.org/TR/2001/REC-SVG-20010904/DTD/svg10.dtd">
<svg version="1.0" xmlns="http://www.w3.org/2000/svg"
 width="630.000000pt" height="630.000000pt" viewBox="0 0 630.000000 630.000000"
 preserveAspectRatio="xMidYMid meet">
<metadata>
Created by potrace 1.14, written by Peter Selinger 2001-2017
</metadata>
<g transform="translate(0.000000,630.000000) scale(0.100000,-0.100000)"
fill="#000000" stroke="none">
<path d="M2638 5625 c-2 -1 -28 -6 -58 -9 -338 -39 -655 -186 -906 -422 -121
-113 -256 -305 -323 -457 -84 -192 -119 -362 -119 -577 0 -114 18 -273 38
-324 5 -14 7 -26 5 -26 -2 0 9 -39 26 -87 119 -337 376 -616 707 -770 128 -59
127 -58 202 -82 161 -51 275 -66 485 -66 180 0 258 8 378 36 26 6 50 9 53 6 6
-5 6 -1121 1 -1147 -22 -106 -84 -156 -267 -215 -47 -14 -93 -34 -102 -42 -28
-25 -22 -61 13 -82 28 -17 47 -19 158 -16 69 2 171 7 226 11 55 3 192 5 305 3
644 -10 780 -5 950 36 29 7 30 7 90 24 119 34 355 173 419 248 94 107 140 210
159 348 9 67 8 249 -1 308 -22 138 -104 270 -224 359 -48 35 -179 107 -207
113 -6 1 -18 5 -26 8 -8 4 -53 17 -100 31 -111 31 -114 45 -13 81 195 69 358
240 406 427 8 32 15 97 15 145 -1 246 -97 407 -299 501 -71 33 -222 77 -304
88 -27 3 -59 8 -69 10 -61 11 -245 18 -411 15 -374 -5 -663 -5 -840 2 -160 6
-185 5 -215 -11 -27 -13 -36 -24 -38 -48 -5 -52 31 -78 138 -103 146 -33 188
-62 220 -148 18 -49 20 -78 20 -352 0 -343 10 -309 -112 -376 -83 -45 -168
-63 -283 -60 -154 5 -260 33 -380 99 -217 121 -387 375 -469 701 -50 203 -62
494 -27 695 68 397 283 712 575 846 233 106 566 105 781 -3 154 -78 229 -162
339 -379 58 -115 81 -138 128 -129 13 3 31 15 42 27 17 21 18 35 12 153 -3 72
-8 141 -10 155 -2 14 -7 52 -11 85 -14 120 -25 177 -38 193 -40 50 -302 114
-687 168 -47 6 -346 14 -352 9z m1442 -1705 c172 -46 269 -160 306 -360 12
-67 11 -235 -2 -298 -13 -65 -64 -165 -108 -214 -97 -109 -405 -178 -527 -119
-35 16 -50 31 -62 59 -21 52 -20 82 3 82 35 0 65 35 65 77 0 31 -9 50 -44 94
l-43 54 5 185 c2 102 8 199 11 215 4 17 11 52 16 78 6 26 17 61 25 77 18 35
71 77 105 83 45 8 204 0 250 -13z m22 -1210 c193 -65 324 -199 371 -381 22
-87 22 -259 -2 -346 -31 -119 -118 -247 -216 -320 -44 -32 -145 -87 -145 -78
0 3 -8 1 -17 -4 -25 -13 -89 -22 -150 -22 -116 1 -200 44 -242 126 l-26 49 -3
441 c-3 401 -2 443 14 472 36 68 108 93 251 88 68 -3 122 -11 165 -25z"/>
</g>
</svg>
